<svg version="1.1" xmlns="http://www.w3.org/2000/svg" xmlns:xlink="http://www.w3.org/1999/xlink" width="547.341796875" height="570"><defs/><g><text fill="#eeeeee" stroke="none" font-family="Arial" font-size="24px" font-style="normal" font-weight="normal" text-decoration="none" x="0" y="0">UNREGISTERED</text><text fill="#eeeeee" stroke="none" font-family="Arial" font-size="24px" font-style="normal" font-weight="normal" text-decoration="none" x="0" y="30">UNREGISTERED</text><text fill="#eeeeee" stroke="none" font-family="Arial" font-size="24px" font-style="normal" font-weight="normal" text-decoration="none" x="0" y="60">UNREGISTERED</text><text fill="#eeeeee" stroke="none" font-family="Arial" font-size="24px" font-style="normal" font-weight="normal" text-decoration="none" x="0" y="90">UNREGISTERED</text><text fill="#eeeeee" stroke="none" font-family="Arial" font-size="24px" font-style="normal" font-weight="normal" text-decoration="none" x="0" y="120">UNREGISTERED</text><text fill="#eeeeee" stroke="none" font-family="Arial" font-size="24px" font-style="normal" font-weight="normal" text-decoration="none" x="0" y="150">UNREGISTERED</text><text fill="#eeeeee" stroke="none" font-family="Arial" font-size="24px" font-style="normal" font-weight="normal" text-decoration="none" x="0" y="180">UNREGISTERED</text><text fill="#eeeeee" stroke="none" font-family="Arial" font-size="24px" font-style="normal" font-weight="normal" text-decoration="none" x="0" y="210">UNREGISTERED</text><text fill="#eeeeee" stroke="none" font-family="Arial" font-size="24px" font-style="normal" font-weight="normal" text-decoration="none" x="0" y="240">UNREGISTERED</text><text fill="#eeeeee" stroke="none" font-family="Arial" font-size="24px" font-style="normal" font-weight="normal" text-decoration="none" x="0" y="270">UNREGISTERED</text><text fill="#eeeeee" stroke="none" font-family="Arial" font-size="24px" font-style="normal" font-weight="normal" text-decoration="none" x="0" y="300">UNREGISTERED</text><text fill="#eeeeee" stroke="none" font-family="Arial" font-size="24px" font-style="normal" font-weight="normal" text-decoration="none" x="0" y="330">UNREGISTERED</text><text fill="#eeeeee" stroke="none" font-family="Arial" font-size="24px" font-style="normal" font-weight="normal" text-decoration="none" x="0" y="360">UNREGISTERED</text><text fill="#eeeeee" stroke="none" font-family="Arial" font-size="24px" font-style="normal" font-weight="normal" text-decoration="none" x="0" y="390">UNREGISTERED</text><text fill="#eeeeee" stroke="none" font-family="Arial" font-size="24px" font-style="normal" font-weight="normal" text-decoration="none" x="0" y="420">UNREGISTERED</text><text fill="#eeeeee" stroke="none" font-family="Arial" font-size="24px" font-style="normal" font-weight="normal" text-decoration="none" x="0" y="450">UNREGISTERED</text><text fill="#eeeeee" stroke="none" font-family="Arial" font-size="24px" font-style="normal" font-weight="normal" text-decoration="none" x="0" y="480">UNREGISTERED</text><text fill="#eeeeee" stroke="none" font-family="Arial" font-size="24px" font-style="normal" font-weight="normal" text-decoration="none" x="0" y="510">UNREGISTERED</text><text fill="#eeeeee" stroke="none" font-family="Arial" font-size="24px" font-style="normal" font-weight="normal" text-decoration="none" x="0" y="540">UNREGISTERED</text><text fill="#eeeeee" stroke="none" font-family="Arial" font-size="24px" font-style="normal" font-weight="normal" text-decoration="none" x="200" y="0">UNREGISTERED</text><text fill="#eeeeee" stroke="none" font-family="Arial" font-size="24px" font-style="normal" font-weight="normal" text-decoration="none" x="200" y="30">UNREGISTERED</text><text fill="#eeeeee" stroke="none" font-family="Arial" font-size="24px" font-style="normal" font-weight="normal" text-decoration="none" x="200" y="60">UNREGISTERED</text><text fill="#eeeeee" stroke="none" font-family="Arial" font-size="24px" font-style="normal" font-weight="normal" text-decoration="none" x="200" y="90">UNREGISTERED</text><text fill="#eeeeee" stroke="none" font-family="Arial" font-size="24px" font-style="normal" font-weight="normal" text-decoration="none" x="200" y="120">UNREGISTERED</text><text fill="#eeeeee" stroke="none" font-family="Arial" font-size="24px" font-style="normal" font-weight="normal" text-decoration="none" x="200" y="150">UNREGISTERED</text><text fill="#eeeeee" stroke="none" font-family="Arial" font-size="24px" font-style="normal" font-weight="normal" text-decoration="none" x="200" y="180">UNREGISTERED</text><text fill="#eeeeee" stroke="none" font-family="Arial" font-size="24px" font-style="normal" font-weight="normal" text-decoration="none" x="200" y="210">UNREGISTERED</text><text fill="#eeeeee" stroke="none" font-family="Arial" font-size="24px" font-style="normal" font-weight="normal" text-decoration="none" x="200" y="240">UNREGISTERED</text><text fill="#eeeeee" stroke="none" font-family="Arial" font-size="24px" font-style="normal" font-weight="normal" text-decoration="none" x="200" y="270">UNREGISTERED</text><text fill="#eeeeee" stroke="none" font-family="Arial" font-size="24px" font-style="normal" font-weight="normal" text-decoration="none" x="200" y="300">UNREGISTERED</text><text fill="#eeeeee" stroke="none" font-family="Arial" font-size="24px" font-style="normal" font-weight="normal" text-decoration="none" x="200" y="330">UNREGISTERED</text><text fill="#eeeeee" stroke="none" font-family="Arial" font-size="24px" font-style="normal" font-weight="normal" text-decoration="none" x="200" y="360">UNREGISTERED</text><text fill="#eeeeee" stroke="none" font-family="Arial" font-size="24px" font-style="normal" font-weight="normal" text-decoration="none" x="200" y="390">UNREGISTERED</text><text fill="#eeeeee" stroke="none" font-family="Arial" font-size="24px" font-style="normal" font-weight="normal" text-decoration="none" x="200" y="420">UNREGISTERED</text><text fill="#eeeeee" stroke="none" font-family="Arial" font-size="24px" font-style="normal" font-weight="normal" text-decoration="none" x="200" y="450">UNREGISTERED</text><text fill="#eeeeee" stroke="none" font-family="Arial" font-size="24px" font-style="normal" font-weight="normal" text-decoration="none" x="200" y="480">UNREGISTERED</text><text fill="#eeeeee" stroke="none" font-family="Arial" font-size="24px" font-style="normal" font-weight="normal" text-decoration="none" x="200" y="510">UNREGISTERED</text><text fill="#eeeeee" stroke="none" font-family="Arial" font-size="24px" font-style="normal" font-weight="normal" text-decoration="none" x="200" y="540">UNREGISTERED</text><text fill="#eeeeee" stroke="none" font-family="Arial" font-size="24px" font-style="normal" font-weight="normal" text-decoration="none" x="400" y="0">UNREGISTERED</text><text fill="#eeeeee" stroke="none" font-family="Arial" font-size="24px" font-style="normal" font-weight="normal" text-decoration="none" x="400" y="30">UNREGISTERED</text><text fill="#eeeeee" stroke="none" font-family="Arial" font-size="24px" font-style="normal" font-weight="normal" text-decoration="none" x="400" y="60">UNREGISTERED</text><text fill="#eeeeee" stroke="none" font-family="Arial" font-size="24px" font-style="normal" font-weight="normal" text-decoration="none" x="400" y="90">UNREGISTERED</text><text fill="#eeeeee" stroke="none" font-family="Arial" font-size="24px" font-style="normal" font-weight="normal" text-decoration="none" x="400" y="120">UNREGISTERED</text><text fill="#eeeeee" stroke="none" font-family="Arial" font-size="24px" font-style="normal" font-weight="normal" text-decoration="none" x="400" y="150">UNREGISTERED</text><text fill="#eeeeee" stroke="none" font-family="Arial" font-size="24px" font-style="normal" font-weight="normal" text-decoration="none" x="400" y="180">UNREGISTERED</text><text fill="#eeeeee" stroke="none" font-family="Arial" font-size="24px" font-style="normal" font-weight="normal" text-decoration="none" x="400" y="210">UNREGISTERED</text><text fill="#eeeeee" stroke="none" font-family="Arial" font-size="24px" font-style="normal" font-weight="normal" text-decoration="none" x="400" y="240">UNREGISTERED</text><text fill="#eeeeee" stroke="none" font-family="Arial" font-size="24px" font-style="normal" font-weight="normal" text-decoration="none" x="400" y="270">UNREGISTERED</text><text fill="#eeeeee" stroke="none" font-family="Arial" font-size="24px" font-style="normal" font-weight="normal" text-decoration="none" x="400" y="300">UNREGISTERED</text><text fill="#eeeeee" stroke="none" font-family="Arial" font-size="24px" font-style="normal" font-weight="normal" text-decoration="none" x="400" y="330">UNREGISTERED</text><text fill="#eeeeee" stroke="none" font-family="Arial" font-size="24px" font-style="normal" font-weight="normal" text-decoration="none" x="400" y="360">UNREGISTERED</text><text fill="#eeeeee" stroke="none" font-family="Arial" font-size="24px" font-style="normal" font-weight="normal" text-decoration="none" x="400" y="390">UNREGISTERED</text><text fill="#eeeeee" stroke="none" font-family="Arial" font-size="24px" font-style="normal" font-weight="normal" text-decoration="none" x="400" y="420">UNREGISTERED</text><text fill="#eeeeee" stroke="none" font-family="Arial" font-size="24px" font-style="normal" font-weight="normal" text-decoration="none" x="400" y="450">UNREGISTERED</text><text fill="#eeeeee" stroke="none" font-family="Arial" font-size="24px" font-style="normal" font-weight="normal" text-decoration="none" x="400" y="480">UNREGISTERED</text><text fill="#eeeeee" stroke="none" font-family="Arial" font-size="24px" font-style="normal" font-weight="normal" text-decoration="none" x="400" y="510">UNREGISTERED</text><text fill="#eeeeee" stroke="none" font-family="Arial" font-size="24px" font-style="normal" font-weight="normal" text-decoration="none" x="400" y="540">UNREGISTERED</text><g transform="translate(-54,-8) scale(1,1)"><rect fill="#C0C0C0" stroke="none" x="93" y="38" width="45.11181640625" height="44" opacity="0.2"/></g><g transform="translate(-54,-8) scale(1,1)"><rect fill="#ffffff" stroke="none" x="86" y="31" width="45.11181640625" height="44"/></g><g transform="translate(-54,-8) scale(1,1)"><path fill="none" stroke="#000000" d="M 86 31 L 131.11181640625 31 L 131.11181640625 75 L 86 75 L 86 31 Z Z" stroke-miterlimit="10"/></g><g transform="translate(-54,-8) scale(1,1)"><path fill="none" stroke="#000000" d="M 86 56 L 131.11181640625 56" stroke-miterlimit="10"/></g><g transform="translate(-54,-8) scale(1,1)"><path fill="none" stroke="#000000" d="M 86 66 L 131.11181640625 66" stroke-miterlimit="10"/></g><g transform="translate(-54,-8) scale(1,1)"><g><path fill="none" stroke="none"/><text fill="#000000" stroke="none" font-family="Arial" font-size="13px" font-style="normal" font-weight="bold" text-decoration="none" x="91.937744140625" y="50.5">Client</text></g></g><g transform="translate(-54,-8) scale(1,1)"><rect fill="#C0C0C0" stroke="none" x="231" y="38" width="55.24267578125" height="44" opacity="0.2"/></g><g transform="translate(-54,-8) scale(1,1)"><rect fill="#ffffff" stroke="none" x="224" y="31" width="55.24267578125" height="44"/></g><g transform="translate(-54,-8) scale(1,1)"><path fill="none" stroke="#000000" d="M 224 31 L 279.24267578125 31 L 279.24267578125 75 L 224 75 L 224 31 Z Z" stroke-miterlimit="10"/></g><g transform="translate(-54,-8) scale(1,1)"><path fill="none" stroke="#000000" d="M 224 56 L 279.24267578125 56" stroke-miterlimit="10"/></g><g transform="translate(-54,-8) scale(1,1)"><path fill="none" stroke="#000000" d="M 224 66 L 279.24267578125 66" stroke-miterlimit="10"/></g><g transform="translate(-54,-8) scale(1,1)"><g><path fill="none" stroke="none"/><text fill="#000000" stroke="none" font-family="Arial" font-size="13px" font-style="normal" font-weight="bold" text-decoration="none" x="230.305908203125" y="50.5">Invoker</text></g></g><g transform="translate(-54,-8) scale(1,1)"><rect fill="#C0C0C0" stroke="none" x="383" y="25" width="89.57080078125" height="70" opacity="0.2"/></g><g transform="translate(-54,-8) scale(1,1)"><rect fill="#ffffff" stroke="none" x="376" y="18" width="89.57080078125" height="70"/></g><g transform="translate(-54,-8) scale(1,1)"><path fill="none" stroke="#000000" d="M 376 18 L 465.57080078125 18 L 465.57080078125 88 L 376 88 L 376 18 Z Z" stroke-miterlimit="10"/></g><g transform="translate(-54,-8) scale(1,1)"><path fill="none" stroke="#000000" d="M 376 43 L 465.57080078125 43" stroke-miterlimit="10"/></g><g transform="translate(-54,-8) scale(1,1)"><path fill="none" stroke="#000000" d="M 376 66 L 465.57080078125 66" stroke-miterlimit="10"/></g><g transform="translate(-54,-8) scale(1,1)"><g><path fill="none" stroke="none"/><text fill="#000000" stroke="none" font-family="Arial" font-size="13px" font-style="normal" font-weight="bold" text-decoration="none" x="390.80224609375" y="37.5">Command</text></g></g><g transform="translate(-54,-8) scale(1,1)"><g><path fill="none" stroke="none"/><text fill="#000000" stroke="none" font-family="Arial" font-size="13px" font-style="normal" font-weight="normal" text-decoration="none" x="381" y="60.5">+receiver</text></g></g><g transform="translate(-54,-8) scale(1,1)"><g><path fill="none" stroke="none"/><text fill="#000000" stroke="none" font-family="Arial" font-size="13px" font-style="normal" font-weight="normal" text-decoration="none" x="381" y="83.5">+execute()</text></g></g><g transform="translate(-54,-8) scale(1,1)"><rect fill="#C0C0C0" stroke="none" x="263" y="246" width="149.341796875" height="57" opacity="0.2"/></g><g transform="translate(-54,-8) scale(1,1)"><rect fill="#ffffff" stroke="none" x="256" y="239" width="149.341796875" height="57"/></g><g transform="translate(-54,-8) scale(1,1)"><path fill="none" stroke="#000000" d="M 256 239 L 405.341796875 239 L 405.341796875 296 L 256 296 L 256 239 Z Z" stroke-miterlimit="10"/></g><g transform="translate(-54,-8) scale(1,1)"><path fill="none" stroke="#000000" d="M 256 264 L 405.341796875 264" stroke-miterlimit="10"/></g><g transform="translate(-54,-8) scale(1,1)"><path fill="none" stroke="#000000" d="M 256 274 L 405.341796875 274" stroke-miterlimit="10"/></g><g transform="translate(-54,-8) scale(1,1)"><g><path fill="none" stroke="none"/><text fill="#000000" stroke="none" font-family="Arial" font-size="13px" font-style="normal" font-weight="bold" text-decoration="none" x="278.286865234375" y="258.5">ActionACommand</text></g></g><g transform="translate(-54,-8) scale(1,1)"><g><path fill="none" stroke="none"/><text fill="#000000" stroke="none" font-family="Arial" font-size="13px" font-style="normal" font-weight="normal" text-decoration="none" x="261" y="291.5">+execute()</text></g></g><g transform="translate(-54,-8) scale(1,1)"><rect fill="#C0C0C0" stroke="none" x="455" y="246" width="143.341796875" height="70" opacity="0.2"/></g><g transform="translate(-54,-8) scale(1,1)"><rect fill="#ffffff" stroke="none" x="448" y="239" width="143.341796875" height="70"/></g><g transform="translate(-54,-8) scale(1,1)"><path fill="none" stroke="#000000" d="M 448 239 L 591.341796875 239 L 591.341796875 309 L 448 309 L 448 239 Z Z" stroke-miterlimit="10"/></g><g transform="translate(-54,-8) scale(1,1)"><path fill="none" stroke="#000000" d="M 448 264 L 591.341796875 264" stroke-miterlimit="10"/></g><g transform="translate(-54,-8) scale(1,1)"><path fill="none" stroke="#000000" d="M 448 287 L 591.341796875 287" stroke-miterlimit="10"/></g><g transform="translate(-54,-8) scale(1,1)"><g><path fill="none" stroke="none"/><text fill="#000000" stroke="none" font-family="Arial" font-size="13px" font-style="normal" font-weight="bold" text-decoration="none" x="467.286865234375" y="258.5">ActionBCommand</text></g></g><g transform="translate(-54,-8) scale(1,1)"><g><path fill="none" stroke="none"/><text fill="#000000" stroke="none" font-family="Arial" font-size="13px" font-style="normal" font-weight="normal" text-decoration="none" x="453" y="281.5">+Attribute1</text></g></g><g transform="translate(-54,-8) scale(1,1)"><g><path fill="none" stroke="none"/><text fill="#000000" stroke="none" font-family="Arial" font-size="13px" font-style="normal" font-weight="normal" text-decoration="none" x="453" y="304.5">+execute()</text></g></g><g transform="translate(-54,-8) scale(1,1)"><path fill="none" stroke="#000000" d="M 336 239 L 336 192 L 416 192 L 416 88" stroke-miterlimit="10"/></g><g transform="translate(-54,-8) scale(1,1)"><path fill="#FFFFFF" stroke="none" d="M 424.419035512032 108.32534971524831 L 416 88 L 407.580964487968 108.32534971524831"/></g><g transform="translate(-54,-8) scale(1,1)"><path fill="none" stroke="#000000" d="M 424.419035512032 108.32534971524831 L 416 88 L 407.580964487968 108.32534971524831 L 424.419035512032 108.32534971524831" stroke-miterlimit="10"/></g><g transform="translate(-54,-8) scale(1,1)"><path fill="none" stroke="#000000" d="M 504 239 L 504 192 L 416 192 L 416 88" stroke-miterlimit="10"/></g><g transform="translate(-54,-8) scale(1,1)"><path fill="#FFFFFF" stroke="none" d="M 424.419035512032 108.32534971524831 L 416 88 L 407.580964487968 108.32534971524831"/></g><g transform="translate(-54,-8) scale(1,1)"><path fill="none" stroke="#000000" d="M 424.419035512032 108.32534971524831 L 416 88 L 407.580964487968 108.32534971524831 L 424.419035512032 108.32534971524831" stroke-miterlimit="10"/></g><g transform="translate(-54,-8) scale(1,1)"><rect fill="#C0C0C0" stroke="none" x="71" y="238" width="89.57080078125" height="72" opacity="0.2"/></g><g transform="translate(-54,-8) scale(1,1)"><rect fill="#ffffff" stroke="none" x="64" y="231" width="89.57080078125" height="72"/></g><g transform="translate(-54,-8) scale(1,1)"><path fill="none" stroke="#000000" d="M 64 231 L 153.57080078125 231 L 153.57080078125 303 L 64 303 L 64 231 Z Z" stroke-miterlimit="10"/></g><g transform="translate(-54,-8) scale(1,1)"><path fill="none" stroke="#000000" d="M 64 256 L 153.57080078125 256" stroke-miterlimit="10"/></g><g transform="translate(-54,-8) scale(1,1)"><path fill="none" stroke="#000000" d="M 64 266 L 153.57080078125 266" stroke-miterlimit="10"/></g><g transform="translate(-54,-8) scale(1,1)"><g><path fill="none" stroke="none"/><text fill="#000000" stroke="none" font-family="Arial" font-size="13px" font-style="normal" font-weight="bold" text-decoration="none" x="83.1376953125" y="250.5">Receiver</text></g></g><g transform="translate(-54,-8) scale(1,1)"><g><path fill="none" stroke="none"/><text fill="#000000" stroke="none" font-family="Arial" font-size="13px" font-style="normal" font-weight="normal" text-decoration="none" x="69" y="283.5">+actionA()</text></g></g><g transform="translate(-54,-8) scale(1,1)"><g><path fill="none" stroke="none"/><text fill="#000000" stroke="none" font-family="Arial" font-size="13px" font-style="normal" font-weight="normal" text-decoration="none" x="69" y="298.5">+actionB()</text></g></g><g transform="translate(-54,-8) scale(1,1)"><path fill="none" stroke="#000000" d="M 132 53 L 223 53" stroke-miterlimit="10"/></g><g transform="translate(-54,-8) scale(1,1)"><path fill="none" stroke="#000000" d="M 212.83732514237585 57.20951775601599 L 223 53 L 212.83732514237585 48.790482243984016" stroke-miterlimit="10"/></g><g transform="translate(-54,-8) scale(1,1)"><path fill="none" stroke="#000000" d="M 280 53 L 375 53" stroke-miterlimit="10"/></g><g transform="translate(-54,-8) scale(1,1)"><path fill="none" stroke="#000000" d="M 364.83732514237585 57.20951775601599 L 375 53 L 364.83732514237585 48.790482243984016" stroke-miterlimit="10"/></g><g transform="translate(-54,-8) scale(1,1)"><path fill="none" stroke="#000000" d="M 108 76 L 108 230" stroke-miterlimit="10"/></g><g transform="translate(-54,-8) scale(1,1)"><path fill="none" stroke="#000000" d="M 103.79048224398402 219.83732514237585 L 108 230 L 112.20951775601598 219.83732514237585" stroke-miterlimit="10"/></g><g transform="translate(-54,-8) scale(1,1)"><g><path fill="none" stroke="none"/><text fill="#000000" stroke="none" font-family="Arial" font-size="13px" font-style="normal" font-weight="normal" text-decoration="none" x="95.5" y="158.5">+receiver</text></g></g><g transform="translate(-54,-8) scale(1,1)"><path fill="#ffffff" stroke="none" d="M 264 328 L 373.14990234375 328 L 383.14990234375 338 L 383.14990234375 366 L 264 366 L 264 328"/></g><g transform="translate(-54,-8) scale(1,1)"><path fill="none" stroke="#000000" d="M 264 328 L 373.14990234375 328 L 383.14990234375 338 L 383.14990234375 366 L 264 366 L 264 328 L 264 328" stroke-miterlimit="10"/></g><g transform="translate(-54,-8) scale(1,1)"><path fill="none" stroke="#000000" d="M 373.14990234375 328 L 373.14990234375 338 L 383.14990234375 338 L 373.14990234375 328" stroke-miterlimit="10"/></g><g transform="translate(-54,-8) scale(1,1)"><g><path fill="none" stroke="none"/><text fill="#000000" stroke="none" font-family="Arial" font-size="13px" font-style="normal" font-weight="normal" text-decoration="none" x="269" y="346">receiver.actionA()</text></g></g><g transform="translate(-54,-8) scale(1,1)"><path fill="none" stroke="#000000" d="M 328 297 L 326 327" stroke-miterlimit="10" stroke-dasharray="3"/></g><g transform="translate(-54,-8) scale(1,1)"><path fill="#ffffff" stroke="none" d="M 464 328 L 573.14990234375 328 L 583.14990234375 338 L 583.14990234375 366 L 464 366 L 464 328"/></g><g transform="translate(-54,-8) scale(1,1)"><path fill="none" stroke="#000000" d="M 464 328 L 573.14990234375 328 L 583.14990234375 338 L 583.14990234375 366 L 464 366 L 464 328 L 464 328" stroke-miterlimit="10"/></g><g transform="translate(-54,-8) scale(1,1)"><path fill="none" stroke="#000000" d="M 573.14990234375 328 L 573.14990234375 338 L 583.14990234375 338 L 573.14990234375 328" stroke-miterlimit="10"/></g><g transform="translate(-54,-8) scale(1,1)"><g><path fill="none" stroke="none"/><text fill="#000000" stroke="none" font-family="Arial" font-size="13px" font-style="normal" font-weight="normal" text-decoration="none" x="469" y="346">receiver.actionB()</text></g></g><g transform="translate(-54,-8) scale(1,1)"><path fill="none" stroke="#000000" d="M 521 310 L 523 327" stroke-miterlimit="10" stroke-dasharray="3"/></g><g transform="translate(-54,-8) scale(1,1)"><path fill="#ffffff" stroke="none" d="M 112 432 L 557 432 L 567 442 L 567 567 L 112 567 L 112 432"/></g><g transform="translate(-54,-8) scale(1,1)"><path fill="none" stroke="#000000" d="M 112 432 L 557 432 L 567 442 L 567 567 L 112 567 L 112 432 L 112 432" stroke-miterlimit="10"/></g><g transform="translate(-54,-8) scale(1,1)"><path fill="none" stroke="#000000" d="M 557 432 L 557 442 L 567 442 L 557 432" stroke-miterlimit="10"/></g><g transform="translate(-54,-8) scale(1,1)"><g><path fill="none" stroke="none"/><text fill="#000000" stroke="none" font-family="Arial" font-size="13px" font-style="normal" font-weight="normal" text-decoration="none" x="117" y="450">--This pattern is used when client calls invoker and invoker has no knowledge</text><text fill="#000000" stroke="none" font-family="Arial" font-size="13px" font-style="normal" font-weight="normal" text-decoration="none" x="117" y="463">of receiver or receiver's action. Normally Inovker is provided by a 3rd party</text><text fill="#000000" stroke="none" font-family="Arial" font-size="13px" font-style="normal" font-weight="normal" text-decoration="none" x="117" y="476">framework</text></g></g><g transform="translate(-54,-8) scale(1,1)"><g><path fill="none" stroke="none"/></g></g><g transform="translate(-54,-8) scale(1,1)"><g><path fill="none" stroke="none"/><text fill="#000000" stroke="none" font-family="Arial" font-size="13px" font-style="normal" font-weight="normal" text-decoration="none" x="117" y="493">--This pattern decouples Invoker with Receiver</text></g></g><g transform="translate(-54,-8) scale(1,1)"><g><path fill="none" stroke="none"/></g></g><g transform="translate(-54,-8) scale(1,1)"><g><path fill="none" stroke="none"/><text fill="#000000" stroke="none" font-family="Arial" font-size="13px" font-style="normal" font-weight="normal" text-decoration="none" x="117" y="510">--Command.execute can have multiple actions which can be used to support</text><text fill="#000000" stroke="none" font-family="Arial" font-size="13px" font-style="normal" font-weight="normal" text-decoration="none" x="117" y="523">Transaction</text></g></g><g transform="translate(-54,-8) scale(1,1)"><g><path fill="none" stroke="none"/></g></g><g transform="translate(-54,-8) scale(1,1)"><g><path fill="none" stroke="none"/><text fill="#000000" stroke="none" font-family="Arial" font-size="13px" font-style="normal" font-weight="normal" text-decoration="none" x="117" y="540">--Undo can be supported by adding an unexecute method in Command</text></g></g><g transform="translate(-54,-8) scale(1,1)"><path fill="none" stroke="#000000" d="M 132 76 L 300 238" stroke-miterlimit="10"/></g><g transform="translate(-54,-8) scale(1,1)"><path fill="none" stroke="#000000" d="M 289.7624804680674 233.97592323218123 L 300 238 L 295.6064324869806 227.91552854590083" stroke-miterlimit="10"/></g></g></svg>